<svg height="512" viewBox="0 0 64 64" width="512" xmlns="http://www.w3.org/2000/svg"><g id="login-sign_in-arrow-import-access" data-name="login-sign in-arrow-import-access"><path d="m61 3v58h-28v-9h19v-40h-19v-9z" fill="#f6cc4f"/><path d="m23 9 20 23-20 23v-13l-20 6v-32l20 6z" fill="#ec455a"/><path d="m61 2h-28a1 1 0 0 0 -1 1v9a1 1 0 0 0 1 1h18v38h-18a1 1 0 0 0 -1 1v9a1 1 0 0 0 1 1h28a1 1 0 0 0 1-1v-58a1 1 0 0 0 -1-1zm-1 58h-26v-7h18a1 1 0 0 0 1-1v-40a1 1 0 0 0 -1-1h-18v-7h26z"/><path d="m43.754 31.344-20-23a1 1 0 0 0 -1.754.656v11.656l-18.713-5.614a1 1 0 0 0 -1.287.958v32a1 1 0 0 0 1.287.958l18.713-5.614v11.656a1 1 0 0 0 .65.937 1.01 1.01 0 0 0 .35.063 1 1 0 0 0 .754-.344l20-23a1 1 0 0 0 0-1.312zm-19.754 20.982v-10.326a1 1 0 0 0 -1.287-.958l-18.713 5.614v-29.312l18.713 5.614a1 1 0 0 0 1.287-.958v-10.326l17.675 20.326z"/></g></svg>